<svg width="101" height="18" viewBox="0 0 101 18" fill="none" xmlns="http://www.w3.org/2000/svg">
<g clip-path="url(#clip0_34_12)">
<path d="M0 17.4545H7.06534C11.0625 17.4545 13.0227 15.4176 13.0227 12.6989C13.0227 10.0568 11.1477 8.50568 9.28977 8.41193V8.24148C10.9943 7.84091 12.3409 6.64773 12.3409 4.52557C12.3409 1.92614 10.4659 0 6.68182 0H0V17.4545ZM3.16193 14.8125V9.69886H6.64773C8.59943 9.69886 9.80966 10.892 9.80966 12.4517C9.80966 13.8409 8.85511 14.8125 6.5625 14.8125H3.16193ZM3.16193 7.4233V2.60795H6.35795C8.21591 2.60795 9.17898 3.58807 9.17898 4.93466C9.17898 6.46875 7.93466 7.4233 6.28977 7.4233H3.16193Z" fill="#2945FF"/>
<path d="M18.0023 0H14.9171V17.4545H18.0023V0Z" fill="#2945FF"/>
<path d="M26.1651 17.7102C30.0003 17.7102 32.4378 15.0085 32.4378 10.9602C32.4378 6.90341 30.0003 4.19318 26.1651 4.19318C22.3299 4.19318 19.8924 6.90341 19.8924 10.9602C19.8924 15.0085 22.3299 17.7102 26.1651 17.7102ZM26.1822 15.2386C24.06 15.2386 23.0202 13.3466 23.0202 10.9517C23.0202 8.55682 24.06 6.6392 26.1822 6.6392C28.2702 6.6392 29.31 8.55682 29.31 10.9517C29.31 13.3466 28.2702 15.2386 26.1822 15.2386Z" fill="#2945FF"/>
<path d="M40.0467 17.7102C43.3364 17.7102 45.433 15.7585 45.6546 12.9801H42.7058C42.4416 14.3864 41.4274 15.196 40.0722 15.196C38.1461 15.196 36.9018 13.5852 36.9018 10.9091C36.9018 8.26705 38.1717 6.68182 40.0722 6.68182C41.5552 6.68182 42.4671 7.63636 42.7058 8.89773H45.6546C45.4416 6.05966 43.2257 4.19318 40.0296 4.19318C36.1944 4.19318 33.7739 6.96307 33.7739 10.9602C33.7739 14.9233 36.1347 17.7102 40.0467 17.7102Z" fill="#2945FF"/>
<path d="M47.468 17.4545H50.5532V13.0568L51.6782 11.8551L55.6839 17.4545H59.3743L54.0049 10.0142L59.076 4.36364H55.4709L50.7663 9.62216H50.5532V0H47.468V17.4545Z" fill="#2945FF"/>
<path d="M60.5484 17.4545H67.6138C71.6109 17.4545 73.5712 15.4176 73.5712 12.6989C73.5712 10.0568 71.6962 8.50568 69.8382 8.41193V8.24148C71.5428 7.84091 72.8894 6.64773 72.8894 4.52557C72.8894 1.92614 71.0143 0 67.2303 0H60.5484V17.4545ZM63.7104 14.8125V9.69886H67.1962C69.1479 9.69886 70.3581 10.892 70.3581 12.4517C70.3581 13.8409 69.4035 14.8125 67.1109 14.8125H63.7104ZM63.7104 7.4233V2.60795H66.9064C68.7644 2.60795 69.7274 3.58807 69.7274 4.93466C69.7274 6.46875 68.4831 7.4233 66.8382 7.4233H63.7104Z" fill="#2945FF"/>
<path d="M81.1757 17.7102C85.011 17.7102 87.4485 15.0085 87.4485 10.9602C87.4485 6.90341 85.011 4.19318 81.1757 4.19318C77.3405 4.19318 74.903 6.90341 74.903 10.9602C74.903 15.0085 77.3405 17.7102 81.1757 17.7102ZM81.1928 15.2386C79.0706 15.2386 78.0309 13.3466 78.0309 10.9517C78.0309 8.55682 79.0706 6.6392 81.1928 6.6392C83.2809 6.6392 84.3206 8.55682 84.3206 10.9517C84.3206 13.3466 83.2809 15.2386 81.1928 15.2386Z" fill="#2945FF"/>
<path d="M91.3776 4.36364H88.1049L91.9912 10.9091L88.0026 17.4545H91.2753L94.0197 12.7415L96.7895 17.4545H100.037L96.0225 10.9091L99.9685 4.36364H96.7043L94.0197 9.19602L91.3776 4.36364Z" fill="#2945FF"/>
<path d="M81.1928 15.2386C79.0706 15.2386 78.0309 13.3466 78.0309 10.9517C78.0309 8.55682 79.0706 6.6392 81.1928 6.6392C83.2809 6.6392 84.3206 8.55682 84.3206 10.9517C84.3206 13.3466 83.2809 15.2386 81.1928 15.2386Z" fill="#2945FF"/>
<path d="M26.1822 15.2386C24.06 15.2386 23.0202 13.3466 23.0202 10.9517C23.0202 8.55682 24.06 6.6392 26.1822 6.6392C28.2702 6.6392 29.31 8.55682 29.31 10.9517C29.31 13.3466 28.2702 15.2386 26.1822 15.2386Z" fill="#2945FF"/>
</g>
<defs>
<clipPath id="clip0_34_12">
<rect width="100.037" height="18" fill="white"/>
</clipPath>
</defs>
</svg>
