<svg width="138" height="25" viewBox="0 0 138 25" fill="none" xmlns="http://www.w3.org/2000/svg">
<g clip-path="url(#clip0_34_25)">
<path d="M108.848 11.0465C110.083 11.0465 111.253 11.0465 112.423 11.0465C112.423 11.6948 112.423 12.3432 112.423 13.0563C112.488 13.0563 112.488 13.1212 112.553 13.1212C113.073 12.2135 113.723 11.5003 114.763 11.3059C115.673 11.1114 116.713 11.1114 117.753 10.9817C117.688 11.1762 117.688 11.3059 117.688 11.4355C117.298 12.408 116.973 13.3805 116.583 14.353C116.518 14.6123 116.388 14.742 116.063 14.6771C115.868 14.6771 115.673 14.6771 115.413 14.6771C113.593 14.6771 112.618 15.5848 112.618 17.4001C112.553 19.6044 112.618 21.8087 112.553 24.013C112.553 24.2075 112.553 24.402 112.553 24.5965C111.318 24.5965 110.083 24.5965 108.848 24.5965C108.848 20.0582 108.848 15.5848 108.848 11.0465Z" fill="white"/>
<path d="M122.369 24.5958C121.134 24.5958 119.964 24.5958 118.728 24.5958C118.728 22.9102 118.728 21.2893 118.728 19.6685C118.728 18.0477 118.728 16.3621 118.728 14.6764C118.273 14.6764 117.883 14.6764 117.363 14.6764C117.688 13.7039 118.078 12.7963 118.403 11.9535C118.728 11.0458 118.728 11.1106 119.703 11.1106C120.614 11.1106 121.524 11.1106 122.434 11.1106C122.369 15.5841 122.369 20.0575 122.369 24.5958Z" fill="white"/>
<path d="M58.144 19.1499C54.6987 19.1499 51.2535 19.1499 47.8082 19.1499C47.8082 20.0576 48.7182 21.0301 49.8883 21.4191C51.3835 21.8729 53.2686 21.8081 54.6337 19.7334C55.6088 20.3169 56.5189 20.8356 57.494 21.4191C56.1289 24.142 52.4886 25.6332 48.9133 24.531C45.468 23.4289 43.4528 19.7334 44.3629 16.1676C45.273 12.537 48.9133 10.2679 52.5536 10.9162C56.1289 11.5645 58.6641 14.6117 58.144 19.1499ZM47.9382 16.1676C50.1484 16.1676 52.2285 16.1676 54.3737 16.1676C54.1787 15.0655 53.0086 14.1578 51.7085 14.093C49.9533 13.8985 48.5232 14.6765 47.9382 16.1676Z" fill="white"/>
<path d="M71.6646 24.5963C70.3645 24.5963 69.1944 24.5963 67.8943 24.5963C67.8943 24.4018 67.8943 24.2073 67.8943 24.0777C67.8943 21.6789 67.8943 19.2801 67.8943 16.8813C67.8943 16.5571 67.8943 16.2978 67.8293 15.9736C67.6343 14.8066 66.8542 14.0286 65.8142 13.9638C64.449 13.8341 63.474 14.4176 63.0839 15.6495C62.8889 16.1681 62.8239 16.8164 62.8239 17.3351C62.8239 19.5394 62.8239 21.7437 62.8239 23.948C62.8239 24.1425 62.8239 24.337 62.8239 24.5315C61.5888 24.5315 60.4187 24.5315 59.1836 24.5315C59.1836 20.0581 59.1836 15.5846 59.1836 11.0463C60.3537 11.0463 61.5888 11.0463 62.8239 11.0463C62.8239 11.5002 62.8239 11.8892 62.8239 12.4727C63.0839 12.2782 63.2139 12.0837 63.4089 11.954C64.9691 10.5925 66.7892 10.398 68.6744 11.0463C70.4945 11.6947 71.4046 13.121 71.6646 14.9363C71.7297 15.455 71.7947 15.9736 71.7947 16.4923C71.7947 18.9559 71.7947 21.4196 71.7947 23.8832C71.6646 24.1425 71.6646 24.337 71.6646 24.5963Z" fill="white"/>
<path d="M137.645 24.5958C136.41 24.5958 135.24 24.5958 134.005 24.5958C134.005 24.142 134.005 23.6882 134.005 23.1695C133.875 23.2343 133.81 23.2992 133.745 23.2992C131.535 25.5683 127.83 25.2441 125.489 23.1047C123.669 21.419 123.149 19.2147 123.344 16.8807C123.539 14.8709 124.384 13.2501 126.009 12.0183C128.22 10.3975 131.73 10.2678 133.745 12.2128C133.745 12.2128 133.81 12.2128 133.875 12.2776C133.875 9.81399 133.875 7.35036 133.875 4.88672C135.11 4.88672 136.345 4.88672 137.58 4.88672C137.645 11.4348 137.645 17.9829 137.645 24.5958ZM134.07 17.7884C134.07 15.7786 132.575 14.1578 130.56 14.1578C128.48 14.1578 126.919 15.7138 126.919 17.7884C126.919 19.7982 128.545 21.4839 130.56 21.4839C132.575 21.4839 134.07 19.863 134.07 17.7884Z" fill="white"/>
<path d="M83.2358 24.5319C83.2358 24.078 83.2358 23.6242 83.2358 23.2352C83.1708 23.2352 83.1058 23.2352 83.1058 23.2352C81.0256 25.4395 77.5803 25.3747 75.2401 23.5594C73.0299 21.8737 72.3799 19.5397 72.6399 16.9464C72.8349 14.6773 73.875 12.862 75.8252 11.695C78.0354 10.3984 81.0906 10.3984 83.2358 12.3433C83.2358 9.81486 83.2358 7.35122 83.2358 4.82275C84.5359 4.82275 85.706 4.82275 86.9411 4.82275C86.9411 11.3708 86.9411 17.9838 86.9411 24.5319C85.706 24.5319 84.5359 24.5319 83.2358 24.5319ZM83.3658 17.7893C83.3658 15.7146 81.8707 14.1586 79.8555 14.1586C77.7753 14.1586 76.2152 15.7795 76.2152 17.7893C76.2152 19.8639 77.8403 21.4199 79.8555 21.4199C81.8057 21.4847 83.3658 19.8639 83.3658 17.7893Z" fill="white"/>
<path d="M107.028 9.61955C105.923 10.2679 104.818 10.9162 103.778 11.5645C103.258 10.981 102.868 10.3327 102.348 9.81405C99.3576 6.96142 93.3771 7.80424 91.882 12.926C90.5819 17.3346 93.9621 21.4839 98.5125 21.2246C100.918 21.0949 102.608 19.9928 103.583 17.7885C103.648 17.594 103.713 17.3995 103.843 17.0753C103.648 17.0753 103.453 17.0753 103.258 17.0753C101.503 17.0753 99.8126 17.0753 98.0575 17.0753C97.6675 17.0753 97.5374 16.9456 97.5374 16.5566C97.5374 15.5841 97.5374 14.5468 97.5374 13.5095C100.983 13.5095 104.428 13.5095 107.808 13.5095C108.328 18.9554 105.403 23.6234 100.333 24.6607C94.6772 25.8277 88.9567 22.5861 87.9816 16.3621C87.1366 10.981 90.3868 5.9241 95.7823 4.82194C99.8776 3.97912 104.298 5.40544 106.703 9.10089C106.768 9.23056 106.898 9.42506 107.028 9.61955Z" fill="white"/>
<path d="M120.614 8.97136C119.379 8.97136 118.404 7.99887 118.339 6.76705C118.339 5.53523 119.314 4.56274 120.614 4.56274C121.849 4.56274 122.824 5.53523 122.824 6.76705C122.824 7.93404 121.784 8.97136 120.614 8.97136Z" fill="white"/>
<path d="M28.6963 21.2897C29.8014 20.3821 30.9715 19.5392 32.0766 18.6316C32.5316 19.1502 32.9867 19.7337 33.5067 20.1227C34.6118 21.0304 35.8469 21.4194 37.277 21.1601C38.4471 20.9007 39.2922 20.0579 39.4222 18.8261C39.4872 17.9833 39.0972 17.3998 38.4471 17.0108C37.602 16.6218 36.692 16.2976 35.8469 15.9735C35.0018 15.6493 34.0917 15.39 33.2467 15.0658C30.9715 14.223 29.6714 12.7318 29.6714 10.2682C29.6714 7.86938 30.9065 6.18373 33.0517 5.21124C35.9119 3.91459 40.2673 4.30359 42.9325 7.41555C41.8924 8.19354 40.9173 8.97153 39.8772 9.74952C39.7472 9.61986 39.6822 9.55503 39.6172 9.42536C38.5121 8.06388 36.627 7.54522 35.0668 8.12871C34.2218 8.45287 33.7017 9.03637 33.6367 9.94402C33.5717 10.7868 34.0267 11.3703 34.7418 11.6945C35.8469 12.2132 37.017 12.6022 38.1871 12.9912C39.4222 13.445 40.7223 13.8988 41.6974 14.8065C43.4525 16.3624 43.9076 18.9558 42.8025 21.2249C41.8274 23.2995 40.0722 24.4665 37.7971 24.7907C34.2868 25.2445 31.2965 24.2072 28.8913 21.5491C28.8263 21.4842 28.7613 21.4194 28.6963 21.2897Z" fill="white"/>
<path opacity="0.62" d="M24.4708 0.349854H8.02441V16.7525H24.4708V0.349854Z" fill="white"/>
<path opacity="0.62" d="M16.346 8.5835H0.224609V24.4026H16.346V8.5835Z" fill="white"/>
</g>
<defs>
<clipPath id="clip0_34_25">
<rect width="138" height="25" fill="white"/>
</clipPath>
</defs>
</svg>
