<svg width="24" height="25" viewBox="0 0 24 25" fill="none" xmlns="http://www.w3.org/2000/svg">
<path fill-rule="evenodd" clip-rule="evenodd" d="M12.2194 7.92017C12.289 7.85032 12.3718 7.79491 12.4629 7.7571C12.554 7.71929 12.6517 7.69983 12.7504 7.69983C12.849 7.69983 12.9467 7.71929 13.0378 7.7571C13.1289 7.79491 13.2117 7.85032 13.2814 7.92017L17.7814 12.4202C17.8512 12.4898 17.9066 12.5726 17.9444 12.6637C17.9822 12.7548 18.0017 12.8525 18.0017 12.9512C18.0017 13.0498 17.9822 13.1475 17.9444 13.2386C17.9066 13.3297 17.8512 13.4125 17.7814 13.4822L13.2814 17.9822C13.1405 18.123 12.9495 18.2021 12.7504 18.2021C12.5512 18.2021 12.3602 18.123 12.2194 17.9822C12.0785 17.8413 11.9994 17.6503 11.9994 17.4512C11.9994 17.252 12.0785 17.061 12.2194 16.9202L16.1899 12.9512L12.2194 8.98217C12.1495 8.9125 12.0941 8.82974 12.0563 8.73862C12.0185 8.6475 11.999 8.54982 11.999 8.45117C11.999 8.35252 12.0185 8.25484 12.0563 8.16372C12.0941 8.0726 12.1495 7.98984 12.2194 7.92017Z" fill="white"/>
<path fill-rule="evenodd" clip-rule="evenodd" d="M6 12.9512C6 12.7523 6.07902 12.5615 6.21967 12.4208C6.36032 12.2802 6.55109 12.2012 6.75 12.2012H16.5C16.6989 12.2012 16.8897 12.2802 17.0303 12.4208C17.171 12.5615 17.25 12.7523 17.25 12.9512C17.25 13.1501 17.171 13.3409 17.0303 13.4815C16.8897 13.6222 16.6989 13.7012 16.5 13.7012H6.75C6.55109 13.7012 6.36032 13.6222 6.21967 13.4815C6.07902 13.3409 6 13.1501 6 12.9512Z" fill="white"/>
</svg>
